HIERARCHY
ROOT Hips
{
 OFFSET 0.000000 0.000000 0.000000
 CHANNELS 6 Xposition Yposition Zposition Yrotation Xrotation Zrotation
 JOINT Chest
 {
  OFFSET 0.000000 14.374500 -0.011500
  CHANNELS 3 Yrotation Xrotation Zrotation
  JOINT Chest2
  {
   OFFSET 0.000000 9.203400 0.023400
   CHANNELS 3 Yrotation Xrotation Zrotation
   JOINT Chest3
   {
    OFFSET 0.000000 9.162700 0.000000
    CHANNELS 3 Yrotation Xrotation Zrotation
    JOINT Chest4
    {
     OFFSET 0.000000 9.153300 0.000000
     CHANNELS 3 Yrotation Xrotation Zrotation
     JOINT Neck
     {
      OFFSET 0.000000 13.353600 0.000000
      CHANNELS 3 Yrotation Xrotation Zrotation
      JOINT Head
      {
       OFFSET 0.000000 8.573800 0.049400
       CHANNELS 3 Yrotation Xrotation Zrotation
       End Site
       {
        OFFSET 0.000000 16.219200 0.026100
       }
      }
     }
     JOINT RightCollar
     {
      OFFSET -2.497100 8.876100 0.000000
      CHANNELS 3 Yrotation Xrotation Zrotation
      JOINT RightShoulder
      {
       OFFSET -12.289200 0.000000 0.000000
       CHANNELS 3 Yrotation Xrotation Zrotation
       JOINT RightElbow
       {
        OFFSET 0.000000 -28.194900 0.000000
        CHANNELS 3 Yrotation Xrotation Zrotation
        JOINT RightWrist
        {
         OFFSET 0.000000 -23.009700 0.007900
         CHANNELS 3 Yrotation Xrotation Zrotation
         End Site
         {
          OFFSET 0.000000 -17.151500 0.000000
         }
        }
       }
      }
     }
     JOINT LeftCollar
     {
      OFFSET 2.497100 8.876100 0.000000
      CHANNELS 3 Yrotation Xrotation Zrotation
      JOINT LeftShoulder
      {
       OFFSET 12.289200 0.000000 0.000000
       CHANNELS 3 Yrotation Xrotation Zrotation
       JOINT LeftElbow
       {
        OFFSET 0.000000 -28.194900 0.000000
        CHANNELS 3 Yrotation Xrotation Zrotation
        JOINT LeftWrist
        {
         OFFSET 0.000000 -23.009700 0.007900
         CHANNELS 3 Yrotation Xrotation Zrotation
         End Site
         {
          OFFSET 0.000000 -17.151500 0.000000
         }
        }
       }
      }
     }
    }
   }
  }
 }
 JOINT RightHip
 {
  OFFSET -11.777600 0.056700 0.005700
  CHANNELS 3 Yrotation Xrotation Zrotation
  JOINT RightKnee
  {
   OFFSET 0.000000 -39.966000 -0.004200
   CHANNELS 3 Yrotation Xrotation Zrotation
   JOINT RightAnkle
   {
    OFFSET 0.000000 -41.981900 0.027400
    CHANNELS 3 Yrotation Xrotation Zrotation
    JOINT RightToe
    {
     OFFSET 0.000000 -9.910600 16.950100
     CHANNELS 3 Yrotation Xrotation Zrotation
     End Site
     {
      OFFSET 0.000000 -1.461000 6.191600
     }
    }
   }
  }
 }
 JOINT LeftHip
 {
  OFFSET 11.777600 0.056700 0.005700
  CHANNELS 3 Yrotation Xrotation Zrotation
  JOINT LeftKnee
  {
   OFFSET 0.000000 -39.966000 -0.004200
   CHANNELS 3 Yrotation Xrotation Zrotation
   JOINT LeftAnkle
   {
    OFFSET 0.000000 -41.981900 0.027400
    CHANNELS 3 Yrotation Xrotation Zrotation
    JOINT LeftToe
    {
     OFFSET 0.000000 -9.910600 16.950100
     CHANNELS 3 Yrotation Xrotation Zrotation
     End Site
     {
      OFFSET 0.000000 -1.461000 6.191600
     }
    }
   }
  }
 }
}
MOTION
Frames: 16
Frame Time: 0.008333
0.000000 91.618700 0.000000 0.000000 -5.767877 0.000000 0.000000 11.653817 0.000000 0.000000 -5.885947 0.000000 0.000000 -0.000000 0.000000 0.000000 -0.000000 0.000000 0.000000 12.528835 0.000000 0.000000 0.711642 0.000000 0.000000 -0.000000 0.000000 0.000000 0.000000 -90.000000 0.000000 -2.309062 0.000000 0.000000 2.309062 0.000000 0.000000 -0.000000 0.000000 0.000000 -0.000000 90.000000 0.000000 -2.309062 0.000000 0.000000 2.309062 0.000000 0.000000 8.520406 0.000000 0.000000 1.905762 0.000000 -0.000000 -4.658285 0.000000 0.000000 -0.000000 0.000000 0.000000 8.520406 0.000000 0.000000 1.905762 0.000000 -0.000000 -4.658285 0.000000 0.000000 -0.000000 0.000000
6.338017 152.661282 21.871915 171.864496 -48.680154 -0.965593 3.756387 29.911446 3.602759 0.518567 5.807556 0.529681 0.844157 9.050257 0.899119 2.644217 23.778633 2.774713 1.612606 9.530476 -1.610657 2.107642 -15.617934 -2.106006 2.309096 -2.189972 -2.219049 3.442051 -19.588251 -9.863284 -115.566937 -69.339041 129.494314 0.937536 2.107667 -11.585344 -10.255339 -4.415772 0.697934 3.850381 -12.109217 4.565258 64.782439 -55.010000 -94.804364 12.259971 -11.222047 0.773478 8.069752 -29.350882 1.024766 -76.677341 86.547015 -78.278852 1.376781 -25.492601 7.507839 0.010568 -0.180475 0.011392 1.063884 -24.623903 -4.464799 148.000422 66.755593 161.034539 -0.774743 7.998693 -8.144270 0.274718 -11.071752 -1.929387
5.635147 145.628426 23.259022 172.008239 -48.625054 -1.136756 3.695629 29.869867 3.524441 0.527527 5.801615 0.537696 0.849751 9.047025 0.865169 2.648269 23.780481 2.684900 1.645681 9.455943 -1.477582 2.112868 -15.696146 -1.971831 2.243237 -2.361350 -2.278270 3.648281 -19.602393 -9.707477 -110.120165 -71.183289 122.384436 1.014720 2.370880 -12.642339 -10.137240 -4.534004 0.916667 4.016651 -12.294846 4.714083 64.310728 -56.054011 -92.437070 12.066264 -13.085683 2.776141 7.947992 -29.435116 1.096738 -77.152009 86.552974 -78.759075 1.371982 -25.565134 7.518209 -0.000190 -0.121102 -0.000098 0.917463 -24.660281 -4.381303 147.992034 66.787446 161.010775 -0.732848 8.007766 -8.109450 0.045573 0.019530 0.026642
5.057566 139.837313 24.401378 172.120769 -48.582914 -1.279305 3.665319 29.832998 3.480095 0.533449 5.797623 0.517247 0.858186 9.041388 0.833475 2.661108 23.778704 2.602489 1.667526 9.381790 -1.341699 2.105332 -15.774053 -1.831833 2.195372 -2.521699 -2.329036 3.836582 -19.723440 -9.572536 -102.908291 -72.772483 113.565624 1.125018 2.413928 -13.540534 -10.055125 -4.700888 1.109669 4.169706 -12.561667 4.950693 63.138460 -57.016235 -89.504750 11.712575 -14.969435 4.870724 7.829315 -29.501169 1.185383 -77.507078 86.546585 -79.139328 1.350648 -25.623751 7.534174 -0.002866 -0.065116 -0.001673 0.795448 -24.686934 -4.306629 147.973824 66.813949 160.989505 -0.716224 8.025886 -8.102906 0.020268 0.017862 0.011851
4.636716 135.656230 25.225314 172.180405 -48.561712 -1.352298 3.665430 29.808438 3.413638 0.541292 5.792031 0.498242 0.869665 9.033428 0.804165 2.683577 23.773391 2.527872 1.706326 9.351950 -1.152380 2.065937 -15.875373 -1.728076 2.165232 -2.666053 -2.366320 4.019629 -19.953124 -9.468713 -93.718924 -73.876249 102.858685 1.297099 2.293433 -14.392949 -10.009809 -4.906106 1.281077 4.280227 -12.928952 5.255742 61.255054 -57.801636 -85.963443 11.180659 -16.778030 6.993290 7.760477 -29.538007 1.239709 -77.766348 86.543957 -79.422065 1.336678 -25.657234 7.537217 -0.000095 -0.035067 -0.000055 0.722809 -24.697202 -4.267723 147.949979 66.835792 160.963251 -0.717470 8.044704 -8.112479 0.013934 0.014667 0.008148
4.371565 133.015280 25.747317 172.224981 -48.550607 -1.409239 3.684811 29.783083 3.355238 0.551205 5.785642 0.480883 0.884400 9.024308 0.777507 2.716115 23.765598 2.461598 1.719142 9.333516 -0.964224 2.038652 -15.934917 -1.630565 2.156445 -2.803995 -2.380279 4.225407 -20.291539 -9.400875 -83.061409 -74.290211 90.773872 1.492145 2.160151 -15.247013 -9.998428 -5.141763 1.442451 4.295950 -13.411141 5.607381 58.703708 -58.350527 -81.810253 10.538526 -18.458763 9.076860 7.705914 -29.561258 1.288601 -77.915035 86.540996 -79.593548 1.323311 -25.681407 7.540701 -0.001086 -0.009592 -0.000635 0.663005 -24.698565 -4.236789 147.924918 66.854226 160.932677 -0.710347 8.065546 -8.119006 0.004252 0.009406 0.002487
4.223044 131.564208 26.034706 172.238341 -48.560027 -1.424882 3.724252 29.769903 3.291876 0.562531 5.779694 0.465780 0.901497 9.015718 0.754369 2.756109 23.757212 2.405668 1.689551 9.290087 -0.829771 2.047669 -15.899427 -1.523550 2.179770 -2.953058 -2.368889 4.458726 -20.732840 -9.369710 -72.075262 -73.963071 78.431012 1.620001 2.095654 -16.070823 -10.002430 -5.400435 1.596540 4.168721 -14.023419 5.989990 55.514919 -58.613350 -77.034264 9.876640 -19.990903 11.043379 7.684472 -29.558350 1.316728 -78.038842 86.540720 -79.735263 1.307855 -25.693180 7.542597 0.000277 -0.001710 0.000162 0.634011 -24.683708 -4.231241 147.895703 66.867456 160.902685 -0.715235 8.078596 -8.127712 0.005640 0.006808 0.003298
4.151270 130.873421 26.174224 172.244648 -48.577960 -1.434121 3.774493 29.757726 3.244152 0.574280 5.774830 0.453720 0.919425 9.008657 0.736012 2.799802 23.749440 2.362855 1.649136 9.220019 -0.738112 1.957949 -15.950676 -1.233886 2.243095 -3.124264 -2.339680 4.681555 -21.268585 -9.378282 -61.798700 -72.997849 66.859417 1.640156 2.096478 -16.794738 -10.000528 -5.670309 1.741478 3.882884 -14.781903 6.389289 51.734960 -58.517700 -71.666227 9.263639 -21.375540 12.831982 7.673550 -29.546429 1.338921 -78.076166 86.543407 -79.784899 1.300837 -25.699321 7.542668 0.002340 0.001697 0.001368 0.612154 -24.663996 -4.231268 147.865370 66.876267 160.870171 -0.709705 8.092714 -8.136078 0.006276 0.006305 0.003670
4.120517 130.589523 26.236455 172.249066 -48.596967 -1.442983 3.832273 29.738655 3.214816 0.586051 5.770737 0.445083 0.937558 9.002666 0.723073 2.845766 23.741782 2.334626 1.625600 9.190567 -0.610797 1.888959 -15.973746 -1.036831 2.348755 -3.312904 -2.301917 4.836034 -21.894313 -9.437898 -52.780702 -71.479065 56.637022 1.606493 2.174865 -17.392481 -9.988160 -5.944151 1.873770 3.455703 -15.689461 6.798637 47.479260 -57.976342 -65.842816 8.766258 -22.646947 14.379375 7.666333 -29.533699 1.356056 -78.047134 86.540127 -79.761587 1.303415 -25.700515 7.539232 0.004198 0.004378 0.002455 0.595857 -24.645700 -4.232543 147.834363 66.883806 160.839667 -0.710950 8.100026 -8.116958 0.009476 0.005988 0.005541
4.107896 130.491721 26.262582 172.255559 -48.634640 -1.453462 3.896755 29.727314 3.203105 0.579123 5.782690 0.450940 0.972840 8.981222 0.701929 2.894502 23.733204 2.320791 1.581923 9.212252 -0.475120 1.858915 -16.015566 -0.895042 2.496796 -3.507352 -2.260016 4.882618 -22.605368 -9.562426 -45.306800 -69.437026 48.084881 1.569210 2.355603 -17.892960 -9.976372 -6.222461 1.986369 2.900946 -16.730425 7.233716 42.954449 -56.906607 -59.787250 8.461951 -23.826769 15.616227 7.659411 -29.500186 1.376981 -78.015609 86.527398 -79.739633 1.305728 -25.702584 7.542283 0.001224 0.003775 0.000716 0.586095 -24.608783 -4.229964 147.817824 66.892293 160.827510 -0.708868 8.107399 -8.111932 0.013870 0.009420 0.008111
4.101466 130.465175 26.275231 172.272085 -48.690488 -1.471215 3.965055 29.720420 3.209318 0.532475 5.829366 0.477647 1.044938 8.925295 0.663157 2.946117 23.723371 2.320752 1.519319 9.248442 -0.356630 1.848237 -16.056747 -0.750055 2.684074 -3.704222 -2.219110 4.830595 -23.382693 -9.763718 -39.375054 -66.959265 41.188314 1.506601 2.593711 -18.315123 -9.982784 -6.508614 2.074414 2.220831 -17.873793 7.716369 38.465590 -55.249206 -53.795731 8.413251 -24.906023 16.514313 7.647343 -29.444902 1.396661 -77.962106 86.521486 -79.686409 1.299997 -25.713042 7.534435 0.001754 -0.000175 0.001026 0.564667 -24.557293 -4.237136 147.791630 66.886988 160.794691 -0.694463 8.109569 -8.099530 0.010431 0.016911 0.006100
4.096006 130.459922 26.285605 172.295811 -48.753174 -1.494213 3.995264 29.748088 3.222535 0.637536 5.738633 0.434592 1.013282 8.965932 0.705768 2.999130 23.712932 2.334198 1.547964 9.200624 -0.232298 1.758857 -16.001289 -0.609245 2.909023 -3.911621 -2.190702 4.739348 -24.194148 -10.056917 -34.673161 -64.171214 35.577443 1.378386 2.769525 -18.657896 -10.017613 -6.805301 2.135473 1.428761 -19.088334 8.250373 34.299414 -52.982494 -48.162783 8.602688 -25.922013 17.087416 7.629093 -29.382597 1.414274 -77.879634 86.519904 -79.606202 1.294031 -25.716777 7.533420 0.002577 -0.000829 0.001507 0.540236 -24.501381 -4.252984 147.751569 66.887503 160.759102 -0.682855 8.128183 -8.100585 0.011790 0.020350 0.006895
4.087971 130.459799 26.296411 172.326694 -48.822587 -1.515155 4.079386 29.713558 3.253989 0.651728 5.734608 0.438867 1.011294 8.979987 0.721581 3.050523 23.703397 2.359332 1.566991 9.185974 -0.112658 1.707545 -15.977389 -0.487806 3.173896 -4.140271 -2.185317 4.692154 -25.014039 -10.455935 -30.875351 -61.147369 30.859543 1.195249 2.789553 -18.961386 -10.079704 -7.115105 2.170479 0.555620 -20.354981 8.814446 30.628848 -50.132977 -43.077656 8.968308 -26.924442 17.392232 7.607960 -29.311749 1.424768 -77.723332 86.523704 -79.459661 1.279423 -25.718155 7.538473 0.002388 -0.001130 0.001396 0.520730 -24.447069 -4.297160 147.669854 66.897346 160.696763 -0.674925 8.186385 -8.118945 0.011347 0.009589 0.006635
4.081742 130.462349 26.307412 172.358300 -48.907668 -1.548249 4.169002 29.686182 3.312250 0.643313 5.754395 0.449075 1.027390 8.978156 0.731792 3.098444 23.696395 2.393181 1.578755 9.184689 -0.004389 1.694801 -15.978758 -0.374401 3.474310 -4.391550 -2.208694 4.776190 -25.838926 -10.959214 -27.806082 -57.900794 26.791079 1.013602 2.655989 -19.288179 -10.170781 -7.443084 2.178137 -0.342276 -21.668338 9.365479 27.498735 -46.787138 -38.573137 9.476087 -27.863762 17.520545 7.579069 -29.225496 1.448767 -77.584051 86.523347 -79.324480 1.272720 -25.716492 7.540072 0.004790 -0.001066 0.002801 0.497982 -24.369606 -4.301665 147.633436 66.905304 160.670860 -0.677925 8.210903 -8.124789 0.017453 0.010021 0.010206
4.074688 130.464487 26.319946 172.394522 -48.995591 -1.587700 4.234277 29.681708 3.373216 0.652654 5.755652 0.457204 1.042409 8.979735 0.744973 3.143569 23.692709 2.434119 1.602029 9.174994 0.102300 1.694963 -15.989155 -0.265385 3.796232 -4.654844 -2.261016 5.076749 -26.683835 -11.557413 -25.373950 -54.431994 23.216311 0.880978 2.433547 -19.633640 -10.298252 -7.797292 2.153734 -1.135755 -23.047354 9.837858 24.752360 -43.072533 -34.522783 10.086741 -28.627811 17.551439 7.547154 -29.134692 1.480533 -77.386684 86.508488 -79.145023 1.273692 -25.711792 7.557913 0.001566 -0.001045 0.000916 0.477414 -24.296771 -4.317192 147.590592 66.897460 160.637986 -0.655588 8.234646 -8.127067 0.020925 0.012832 0.012236
4.062829 130.458240 26.339799 172.421852 -49.043564 -1.611461 4.292427 29.639896 3.420400 0.661205 5.759592 0.466748 1.056208 8.985194 0.760301 3.185239 23.693016 2.479808 1.635871 9.159058 0.212002 1.706047 -16.006251 -0.155599 4.131343 -4.921513 -2.335853 5.638443 -27.570896 -12.241729 -23.487742 -50.755850 20.011708 0.798307 2.181518 -19.919137 -10.462468 -8.183372 2.100625 -1.631334 -24.543111 10.166937 22.094907 -39.085544 -30.749302 10.712696 -29.148216 17.481421 7.531560 -29.082173 1.493989 -77.198964 86.496607 -78.965975 1.252918 -25.731899 7.558800 -0.000223 0.004537 -0.000130 0.491552 -24.289236 -4.384577 147.487787 66.863059 160.559369 -0.619134 8.291508 -8.088939 0.013312 0.018120 0.007785
